<?xml version="1.0" encoding="utf-8"?>
<!-- Generator: Adobe Illustrator 25.0.0, SVG Export Plug-In . SVG Version: 6.00 Build 0)  -->
<svg version="1.1"
	 id="svg3095" inkscape:version="0.92.3 (2405546, 2018-03-11)" xmlns:cc="http://creativecommons.org/ns#" xmlns:dc="http://purl.org/dc/elements/1.1/" xmlns:inkscape="http://www.inkscape.org/namespaces/inkscape" xmlns:rdf="http://www.w3.org/1999/02/22-rdf-syntax-ns#" xmlns:sodipodi="http://sodipodi.sourceforge.net/DTD/sodipodi-0.dtd" xmlns:svg="http://www.w3.org/2000/svg"
	 xmlns="http://www.w3.org/2000/svg" xmlns:xlink="http://www.w3.org/1999/xlink" x="0px" y="0px" viewBox="0 0 800 480"
	 style="enable-background:new 0 0 800 480;" xml:space="preserve">
<style type="text/css">
	.st0{fill:#FFFFFF;}
	.st1{fill:#FF0000;}
	.st2{font-family:'Tahoma-Bold';}
	.st3{font-size:30px;}
	.st4{font-family:'Tahoma';}
	.st5{font-size:38px;}
	.st6{font-size:25px;}
	.st7{fill:#090509;}
	.st8{font-size:21px;}
	.st9{font-size:29px;}
	.st10{font-size:47px;}
	.st11{font-size:40px;}
	.st12{font-size:100px;}
</style>
<rect id="rect3855" class="st0" width="800" height="480"/>
<sodipodi:namedview  bordercolor="#666666" borderopacity="1" gridtolerance="10" guidetolerance="10" id="namedview3201" inkscape:current-layer="svg3095" inkscape:cx="334.47814" inkscape:cy="189.13584" inkscape:pageopacity="0" inkscape:pageshadow="2" inkscape:window-height="1379" inkscape:window-maximized="1" inkscape:window-width="2498" inkscape:window-x="62" inkscape:window-y="27" inkscape:zoom="0.945" objecttolerance="10" pagecolor="#ffffff" showgrid="false">
	</sodipodi:namedview>
<g id="currentweather" transform="scale(1.2) translate(75 165)">
	<g id="currentweathericon">
	</g>
</g>
<text id="alertmessage" transform="matrix(1 0 0 1 0 55)" class="st1 st2 st3">ALERT_MESSAGE</text>
<text id="temphighlow" transform="matrix(1 0 0 1 -32.0405 360)" class="st1 st4 st5">HIGH_ONE/LOW_ONE</text>
<text id="temphighlow_1_" transform="matrix(1 0 0 1 61.9214 390)" class="st1 st4 st6">WEATHER_DESC</text>
<path id="divider" inkscape:connector-curvature="0" d="M301.1,394.8v70h3V229.3h-3V394.8z"/>
<g id="calendaricon" transform="scale(0.1) translate(3300,2000)">
	<path id="path132" inkscape:connector-curvature="0" class="st7" d="M506.6,89.4c-4-12.9-15.6-22.5-29.9-22.5H445v49.3
		c0,26.3-21.4,47.7-47.7,47.7s-47.7-21.4-47.7-47.7V66.9H158.8v49.3c0,26.3-21.4,47.7-47.7,47.7s-47.7-21.4-47.7-47.7V66.9H31.8
		c-14.3,0-25.9,9.6-29.9,22.5H0v387.4c0,17.5,14.2,31.8,31.8,31.8h445c17.5,0,31.8-14.2,31.8-31.8V89.4H506.6z M476.7,476.7h-445
		V222.5h445V476.7z"/>
	<path id="path134" inkscape:connector-curvature="0" class="st7" d="M111.1,132.1c8.8,0,15.9-7.1,15.9-15.9V15.9
		C127,7.1,119.9,0,111.1,0S95.2,7.1,95.2,15.9v100.3C95.2,125,102.3,132.1,111.1,132.1z"/>
	<path id="path136" inkscape:connector-curvature="0" class="st7" d="M397.3,132.1c8.7,0,15.9-7.1,15.9-15.9V15.9
		C413.2,7.1,406,0,397.3,0c-8.7,0-15.9,7.1-15.9,15.9v100.3C381.4,125,388.5,132.1,397.3,132.1z"/>
</g>
<text transform="matrix(1 0 0 1 330 280)" class="st4 st8">CAL_DATETIME_1</text>
<text transform="matrix(1 0 0 1 515.0781 280)" class="st4 st9"> </text>
<text transform="matrix(1 0 0 1 330 305)" class="st1 st2 st9">CAL_DESC_1</text>
<text transform="matrix(1 0 0 1 330 330)" class="st4 st8">CAL_DATETIME_2</text>
<text transform="matrix(1 0 0 1 515.0781 330)" class="st4 st9"> </text>
<text transform="matrix(1 0 0 1 330 355)" class="st1 st2 st9">CAL_DESC_2</text>
<text transform="matrix(1 0 0 1 330 380)" class="st4 st8">CAL_DATETIME_3</text>
<text transform="matrix(1 0 0 1 515.0781 380)" class="st4 st9"> </text>
<text transform="matrix(1 0 0 1 330 405)" class="st1 st2 st9">CAL_DESC_3</text>
<text transform="matrix(1 0 0 1 330 430)" class="st4 st8">CAL_DATETIME_4</text>
<text transform="matrix(1 0 0 1 515.0781 430)" class="st4 st9"> </text>
<text transform="matrix(1 0 0 1 330 455)" class="st1 st2 st9">CAL_DESC_4</text>
<text id="textday" transform="matrix(1 0 0 1 465.7585 75)" class="st2 st10">DAY_NAME</text>
<text id="textdate" transform="matrix(1 0 0 1 513.2812 130)" class="st4 st11">DAY_ONE</text>
<text id="texttime" transform="matrix(1 0 0 1 30 125)" class="st1 st2 st12">TIME_NOW</text>
</svg>
